<?xml version="1.0" encoding="UTF-8"?>
<svg id="Camada_2" data-name="Camada 2" xmlns="http://www.w3.org/2000/svg" viewBox="0 0 272 448">
  <defs>
    <style>
      .cls-1 {
        fill: #03f;
      }
    </style>
  </defs>
  <g id="Camada_1-2" data-name="Camada 1">
    <g>
      <g id="Mobile_Banking" data-name="Mobile Banking">
        <path class="cls-1" d="M232,0H40C17.9,0,0,17.91,0,40v368c0,22.09,17.9,40,40,40h192c22.09,0,40-17.91,40-40v-108.88c-6.06-5.75-11.45-12.27-16-19.41v35.14c.22,5.98.13,15.18.06,30.15-.03,6.51-.06,14.1-.06,23H16V40c0-13.25,10.74-24,24-24h32v8c0,13.25,10.74,24,24,24h80c13.25,0,24-10.75,24-24v-8h32c13.25,0,24,10.75,24,24v136h16v-16h-10.32c3.17-4.06,6.62-7.85,10.32-11.35V40c0-22.09-17.91-40-40-40ZM256,384v24c0,13.25-10.75,24-24,24H40c-13.26,0-24-10.75-24-24v-24h240ZM184,24c0,4.42-3.59,8-8,8h-80c-4.42,0-8-3.58-8-8v-8h96v8ZM256,272h16v-16h-16v16Z"/>
        <path class="cls-1" d="M128,416h16c4.42,0,8-3.58,8-8s-3.58-8-8-8h-16c-4.42,0-8,3.58-8,8s3.58,8,8,8Z"/>
        <rect class="cls-1" x="256" y="84.33" width="16" height="260.67"/>
      </g>
      <g>
        <path class="cls-1" d="M184.56,224.84h-103.58c-17.87-.02-32.35-14.5-32.37-32.37v-64.74c.02-17.87,14.5-32.35,32.37-32.37h103.58c17.87.02,32.35,14.5,32.37,32.37v64.74c-.02,17.87-14.5,32.35-32.37,32.37ZM80.98,108.31c-10.73,0-19.42,8.7-19.42,19.42v64.74c0,10.73,8.7,19.42,19.42,19.42h103.58c10.73,0,19.42-8.7,19.42-19.42v-64.74c0-10.73-8.7-19.42-19.42-19.42h-103.58Z"/>
        <path class="cls-1" d="M100.41,198.95h-12.95c-7.15,0-12.95-5.8-12.95-12.95v-12.95c0-7.15,5.8-12.95,12.95-12.95h12.95c7.15,0,12.95,5.8,12.95,12.95v12.95c0,7.15-5.8,12.95-12.95,12.95ZM87.46,173.05v12.95h12.95v-12.95h-12.95Z"/>
        <path class="cls-1" d="M210.46,147.16H55.09c-3.58,0-6.47-2.9-6.47-6.47s2.9-6.47,6.47-6.47h155.37c3.58,0,6.47,2.9,6.47,6.47s-2.9,6.47-6.47,6.47Z"/>
        <path class="cls-1" d="M145.72,198.95h-12.95c-3.58,0-6.47-2.9-6.47-6.47s2.9-6.47,6.47-6.47h12.95c3.58,0,6.47,2.9,6.47,6.47s-2.9,6.47-6.47,6.47Z"/>
        <path class="cls-1" d="M184.56,198.95h-12.95c-3.58,0-6.47-2.9-6.47-6.47s2.9-6.47,6.47-6.47h12.95c3.58,0,6.47,2.9,6.47,6.47s-2.9,6.47-6.47,6.47Z"/>
      </g>
    </g>
  </g>
</svg>