<?xml version="1.0" encoding="UTF-8"?>
<svg id="Camada_2" data-name="Camada 2" xmlns="http://www.w3.org/2000/svg" viewBox="0 0 512 393.85">
  <defs>
    <style>
      .cls-1 {
        fill: #03f;
      }
    </style>
  </defs>
  <g id="Layer_1" data-name="Layer 1">
    <g>
      <path class="cls-1" d="M98.46,393.85h315.08c54.35-.07,98.4-44.11,98.46-98.46V98.46c-.07-54.35-44.11-98.4-98.46-98.46H98.46C44.11.07.07,44.11,0,98.46v196.92c.07,54.35,44.11,98.4,98.46,98.46ZM413.54,39.38c32.63,0,59.08,26.45,59.08,59.08v196.92c0,32.63-26.45,59.08-59.08,59.08H98.46c-32.63,0-59.08-26.45-59.08-59.08V98.46c0-32.63,26.45-59.08,59.08-59.08h315.08Z"/>
      <path class="cls-1" d="M19.69,157.54h472.62c10.88,0,19.69-8.82,19.69-19.69s-8.82-19.69-19.69-19.69H19.69c-10.88,0-19.69,8.82-19.69,19.69s8.82,19.69,19.69,19.69Z"/>
      <path class="cls-1" d="M216.62,315.08h39.38c10.88,0,19.69-8.82,19.69-19.69s-8.82-19.69-19.69-19.69h-39.38c-10.88,0-19.69,8.82-19.69,19.69s8.82,19.69,19.69,19.69Z"/>
      <path class="cls-1" d="M98.46,315.08h39.38c10.88,0,19.69-8.82,19.69-19.69s-8.82-19.69-19.69-19.69h-39.38c-10.88,0-19.69,8.82-19.69,19.69s8.82,19.69,19.69,19.69Z"/>
    </g>
  </g>
</svg>