<?xml version="1.0" encoding="UTF-8"?>
<svg id="Camada_2" data-name="Camada 2" xmlns="http://www.w3.org/2000/svg" viewBox="0 0 512 393.85">
  <defs>
    <style>
      .cls-1 {
        fill: #03f;
      }
    </style>
  </defs>
  <g id="Layer_1" data-name="Layer 1">
    <g>
      <path class="cls-1" d="M413.54,393.85H98.46c-54.35-.07-98.4-44.11-98.46-98.46V98.46C.07,44.11,44.11.07,98.46,0h315.08c54.35.07,98.4,44.11,98.46,98.46v196.92c-.07,54.35-44.11,98.4-98.46,98.46ZM98.46,39.38c-32.63,0-59.08,26.45-59.08,59.08v196.92c0,32.63,26.45,59.08,59.08,59.08h315.08c32.63,0,59.08-26.45,59.08-59.08V98.46c0-32.63-26.45-59.08-59.08-59.08H98.46Z"/>
      <path class="cls-1" d="M157.54,315.08h-39.38c-21.75,0-39.38-17.63-39.38-39.38v-39.38c0-21.75,17.63-39.38,39.38-39.38h39.38c21.75,0,39.38,17.63,39.38,39.38v39.38c0,21.75-17.63,39.38-39.38,39.38ZM118.15,236.31v39.38h39.38v-39.38h-39.38Z"/>
      <path class="cls-1" d="M492.31,157.54H19.69c-10.88,0-19.69-8.82-19.69-19.69s8.82-19.69,19.69-19.69h472.62c10.88,0,19.69,8.82,19.69,19.69s-8.82,19.69-19.69,19.69Z"/>
      <path class="cls-1" d="M295.38,315.08h-39.38c-10.88,0-19.69-8.82-19.69-19.69s8.82-19.69,19.69-19.69h39.38c10.88,0,19.69,8.82,19.69,19.69s-8.82,19.69-19.69,19.69Z"/>
      <path class="cls-1" d="M413.54,315.08h-39.38c-10.88,0-19.69-8.82-19.69-19.69s8.82-19.69,19.69-19.69h39.38c10.88,0,19.69,8.82,19.69,19.69s-8.82,19.69-19.69,19.69Z"/>
    </g>
  </g>
</svg>