<?xml version="1.0" encoding="UTF-8"?>
<svg id="Camada_2" data-name="Camada 2" xmlns="http://www.w3.org/2000/svg" viewBox="0 0 392.53 477.87">
  <defs>
    <style>
      .cls-1 {
        fill: #03f;
      }
    </style>
  </defs>
  <g id="icons">
    <g>
      <path class="cls-1" d="M261.12,68.68l28.83-42.48c-57.57-34.93-129.79-34.93-187.36,0l28.83,42.48c13.9-8.07,29.19-13.45,45.07-15.87,1.31-7.68,2.65-15.2,3.93-22.44,1.53-8.75,9.85-14.6,18.6-13.08,6.68,1.16,11.91,6.4,13.08,13.08,1.29,7.24,2.62,14.8,3.93,22.44,15.89,2.42,31.19,7.8,45.09,15.87Z"/>
      <path class="cls-1" d="M384,221.87H8.53c-4.71,0-8.53,3.82-8.53,8.53v238.93c0,4.71,3.82,8.53,8.53,8.53h375.47c4.71,0,8.53-3.82,8.53-8.53v-238.93c0-4.71-3.82-8.53-8.53-8.53ZM179.2,375.47c0-4.71,3.82-8.53,8.53-8.53s8.53,3.82,8.53,8.53v17.07c0,4.71-3.82,8.53-8.53,8.53s-8.53-3.82-8.53-8.53v-17.07ZM145.07,375.47c0-4.71,3.82-8.53,8.53-8.53s8.53,3.82,8.53,8.53v17.07c0,4.71-3.82,8.53-8.53,8.53s-8.53-3.82-8.53-8.53v-17.07ZM25.6,375.47c0-4.71,3.82-8.53,8.53-8.53s8.53,3.82,8.53,8.53v17.07c0,4.71-3.82,8.53-8.53,8.53s-8.53-3.82-8.53-8.53v-17.07ZM102.4,443.73H34.13c-4.71,0-8.53-3.82-8.53-8.53s3.82-8.53,8.53-8.53h68.27c4.71,0,8.53,3.82,8.53,8.53s-3.82,8.53-8.53,8.53ZM59.73,392.53v-17.07c0-4.71,3.82-8.53,8.53-8.53s8.53,3.82,8.53,8.53v17.07c0,4.71-3.82,8.53-8.53,8.53s-8.53-3.82-8.53-8.53ZM110.93,392.53c0,4.71-3.82,8.53-8.53,8.53s-8.53-3.82-8.53-8.53v-17.07c0-4.71,3.82-8.53,8.53-8.53s8.53,3.82,8.53,8.53v17.07ZM119.47,307.2c0,14.14-11.46,25.6-25.6,25.6h-42.67c-14.14,0-25.6-11.46-25.6-25.6v-25.6c0-14.14,11.46-25.6,25.6-25.6h42.67c14.14,0,25.6,11.46,25.6,25.6v25.6ZM221.87,443.73h-68.27c-4.71,0-8.53-3.82-8.53-8.53s3.82-8.53,8.53-8.53h68.27c4.71,0,8.53,3.82,8.53,8.53s-3.82,8.53-8.53,8.53ZM230.4,392.53c0,4.71-3.82,8.53-8.53,8.53s-8.53-3.82-8.53-8.53v-17.07c0-4.71,3.82-8.53,8.53-8.53s8.53,3.82,8.53,8.53v17.07ZM281.6,392.53c0,4.71-3.82,8.53-8.53,8.53s-8.53-3.82-8.53-8.53v-17.07c0-4.71,3.82-8.53,8.53-8.53s8.53,3.82,8.53,8.53v17.07ZM315.73,392.53c0,4.71-3.82,8.53-8.53,8.53s-8.53-3.82-8.53-8.53v-17.07c0-4.71,3.82-8.53,8.53-8.53s8.53,3.82,8.53,8.53v17.07ZM349.87,392.53c0,4.71-3.82,8.53-8.53,8.53s-8.53-3.82-8.53-8.53v-17.07c0-4.71,3.82-8.53,8.53-8.53s8.53,3.82,8.53,8.53v17.07Z"/>
      <path class="cls-1" d="M179.2,153.51c0,9.43,7.64,17.07,17.07,17.07s17.07-7.64,17.07-17.07c-3.77-38.51-9.46-76.81-17.07-114.75-7.6,37.94-13.3,76.24-17.07,114.75Z"/>
      <rect class="cls-1" x="42.67" y="273.07" width="59.73" height="42.67" rx="8.53" ry="8.53"/>
      <path class="cls-1" d="M323.24,162.93c.37,4.3,3.92,7.64,8.24,7.74h34.9c2.37,0,4.63-1,6.23-2.76,1.5-1.61,2.24-3.78,2.03-5.97-4.63-50.15-30.26-95.99-70.55-126.21l-28.9,42.59c26.58,20.73,43.86,51.16,48.05,84.61h0Z"/>
      <path class="cls-1" d="M17.92,161.95c-.2,2.19.53,4.36,2.03,5.97,1.6,1.75,3.86,2.75,6.23,2.76h34.9c4.32-.1,7.87-3.44,8.24-7.74,4.19-33.45,21.47-63.87,48.05-84.6l-28.94-42.6C48.16,65.96,22.55,111.8,17.92,161.95h0Z"/>
    </g>
  </g>
</svg>