<?xml version="1.0" encoding="UTF-8"?>
<svg id="Camada_2" data-name="Camada 2" xmlns="http://www.w3.org/2000/svg" viewBox="0 0 272 448">
  <defs>
    <style>
      .cls-1 {
        fill: #03f;
      }
    </style>
  </defs>
  <g id="Camada_1-2" data-name="Camada 1">
    <g>
      <g id="Mobile_Banking" data-name="Mobile Banking">
        <path class="cls-1" d="M232,0H40C17.9,0,0,17.91,0,40v368c0,22.09,17.9,40,40,40h192c22.09,0,40-17.91,40-40v-108.88c-6.06-5.75-11.45-12.27-16-19.41v35.14c.22,5.98.13,15.18.06,30.15-.03,6.51-.06,14.1-.06,23H16V40c0-13.25,10.74-24,24-24h32v8c0,13.25,10.74,24,24,24h80c13.25,0,24-10.75,24-24v-8h32c13.25,0,24,10.75,24,24v136h16v-16h-10.32c3.17-4.06,6.62-7.85,10.32-11.35V40c0-22.09-17.91-40-40-40ZM256,384v24c0,13.25-10.75,24-24,24H40c-13.26,0-24-10.75-24-24v-24h240ZM184,24c0,4.42-3.59,8-8,8h-80c-4.42,0-8-3.58-8-8v-8h96v8ZM256,272h16v-16h-16v16Z"/>
        <path class="cls-1" d="M128,416h16c4.42,0,8-3.58,8-8s-3.58-8-8-8h-16c-4.42,0-8,3.58-8,8s3.58,8,8,8Z"/>
        <rect class="cls-1" x="256" y="84.33" width="16" height="260.67"/>
      </g>
      <g>
        <path class="cls-1" d="M160.06,144.05l10.7-15.76c-21.36-12.96-48.16-12.96-69.52,0l10.7,15.76c5.16-2.99,10.83-4.99,16.73-5.89.49-2.85.98-5.64,1.46-8.33.57-3.25,3.66-5.42,6.9-4.85,2.48.43,4.42,2.37,4.85,4.85.48,2.69.97,5.49,1.46,8.33,5.9.9,11.57,2.9,16.73,5.89Z"/>
        <path class="cls-1" d="M205.66,200.89H66.33c-1.75,0-3.17,1.42-3.17,3.17v88.66c0,1.75,1.42,3.17,3.17,3.17h139.33c1.75,0,3.17-1.42,3.17-3.17v-88.66c0-1.75-1.42-3.17-3.17-3.17ZM129.66,257.89c0-1.75,1.42-3.17,3.17-3.17s3.17,1.42,3.17,3.17v6.33c0,1.75-1.42,3.17-3.17,3.17s-3.17-1.42-3.17-3.17v-6.33ZM117,257.89c0-1.75,1.42-3.17,3.17-3.17s3.17,1.42,3.17,3.17v6.33c0,1.75-1.42,3.17-3.17,3.17s-3.17-1.42-3.17-3.17v-6.33ZM72.66,257.89c0-1.75,1.42-3.17,3.17-3.17s3.17,1.42,3.17,3.17v6.33c0,1.75-1.42,3.17-3.17,3.17s-3.17-1.42-3.17-3.17v-6.33ZM101.16,283.22h-25.33c-1.75,0-3.17-1.42-3.17-3.17s1.42-3.17,3.17-3.17h25.33c1.75,0,3.17,1.42,3.17,3.17s-1.42,3.17-3.17,3.17ZM85.33,264.22v-6.33c0-1.75,1.42-3.17,3.17-3.17s3.17,1.42,3.17,3.17v6.33c0,1.75-1.42,3.17-3.17,3.17s-3.17-1.42-3.17-3.17ZM104.33,264.22c0,1.75-1.42,3.17-3.17,3.17s-3.17-1.42-3.17-3.17v-6.33c0-1.75,1.42-3.17,3.17-3.17s3.17,1.42,3.17,3.17v6.33ZM107.5,232.56c0,5.25-4.25,9.5-9.5,9.5h-15.83c-5.25,0-9.5-4.25-9.5-9.5v-9.5c0-5.25,4.25-9.5,9.5-9.5h15.83c5.25,0,9.5,4.25,9.5,9.5v9.5ZM145.49,283.22h-25.33c-1.75,0-3.17-1.42-3.17-3.17s1.42-3.17,3.17-3.17h25.33c1.75,0,3.17,1.42,3.17,3.17s-1.42,3.17-3.17,3.17ZM148.66,264.22c0,1.75-1.42,3.17-3.17,3.17s-3.17-1.42-3.17-3.17v-6.33c0-1.75,1.42-3.17,3.17-3.17s3.17,1.42,3.17,3.17v6.33ZM167.66,264.22c0,1.75-1.42,3.17-3.17,3.17s-3.17-1.42-3.17-3.17v-6.33c0-1.75,1.42-3.17,3.17-3.17s3.17,1.42,3.17,3.17v6.33ZM180.33,264.22c0,1.75-1.42,3.17-3.17,3.17s-3.17-1.42-3.17-3.17v-6.33c0-1.75,1.42-3.17,3.17-3.17s3.17,1.42,3.17,3.17v6.33ZM192.99,264.22c0,1.75-1.42,3.17-3.17,3.17s-3.17-1.42-3.17-3.17v-6.33c0-1.75,1.42-3.17,3.17-3.17s3.17,1.42,3.17,3.17v6.33Z"/>
        <path class="cls-1" d="M129.66,175.53c0,3.5,2.84,6.33,6.33,6.33s6.33-2.84,6.33-6.33c-1.4-14.29-3.51-28.5-6.33-42.58-2.82,14.08-4.94,28.29-6.33,42.58Z"/>
        <rect class="cls-1" x="79" y="219.89" width="22.17" height="15.83" rx="3.17" ry="3.17"/>
        <path class="cls-1" d="M183.11,179.02c.14,1.6,1.46,2.83,3.06,2.87h12.95c.88,0,1.72-.37,2.31-1.02.56-.6.83-1.4.75-2.22-1.72-18.61-11.23-35.62-26.18-46.83l-10.73,15.8c9.86,7.69,16.28,18.98,17.83,31.4h0Z"/>
        <path class="cls-1" d="M69.81,178.66c-.08.81.2,1.62.75,2.22.59.65,1.43,1.02,2.31,1.02h12.95c1.6-.04,2.92-1.27,3.06-2.87,1.56-12.41,7.97-23.7,17.83-31.39l-10.74-15.81c-14.95,11.21-24.45,28.23-26.17,46.83h0Z"/>
      </g>
    </g>
  </g>
</svg>