<?xml version="1.0" encoding="UTF-8"?>
<svg id="Camada_2" data-name="Camada 2" xmlns="http://www.w3.org/2000/svg" viewBox="0 0 512 489.74">
  <defs>
    <style>
      .cls-1 {
        fill: #03f;
      }
    </style>
  </defs>
  <g id="Capa_1" data-name="Capa 1">
    <g>
      <path class="cls-1" d="M378.43,489.74c-73.46,0-133.57-60.1-133.57-133.57s60.1-133.57,133.57-133.57,133.57,60.1,133.57,133.57-60.1,133.57-133.57,133.57h0ZM378.43,267.13c-48.97,0-89.04,40.07-89.04,89.04s40.07,89.04,89.04,89.04,89.04-40.07,89.04-89.04-40.07-89.04-89.04-89.04h0Z"/>
      <path class="cls-1" d="M378.43,356.17c-13.36,0-22.26-8.9-22.26-22.26v-22.26c0-13.36,8.9-22.26,22.26-22.26s22.26,8.9,22.26,22.26v22.26c0,13.36-8.9,22.26-22.26,22.26Z"/>
      <path class="cls-1" d="M378.43,422.96c-6.68,0-11.13-2.23-15.58-6.68-4.45-4.45-6.68-8.9-6.68-15.58s2.23-11.13,6.68-15.58c8.9-8.9,22.26-8.9,31.16,0,4.45,4.45,6.68,8.9,6.68,15.58s-2.23,11.13-6.68,15.58c-4.45,4.45-8.9,6.68-15.58,6.68Z"/>
      <path class="cls-1" d="M422.96,0H66.78C31.16,0,0,31.16,0,69.01v238.19c0,40.07,31.16,71.24,66.78,71.24h133.57c11.13,0,22.26-11.13,22.26-22.26s-11.13-22.26-22.26-22.26H66.78c-11.13,0-22.26-11.13-22.26-24.49v-153.6h400.7v44.52c0,11.13,11.13,22.26,22.26,22.26s22.26-11.13,22.26-22.26V69.01C489.74,31.16,460.8,0,422.96,0h0ZM44.52,111.3v-42.3c0-13.36,11.13-24.49,22.26-24.49h356.17c11.13,0,22.26,11.13,22.26,24.49v42.3H44.52Z"/>
      <path class="cls-1" d="M155.83,244.87h-44.52c-13.36,0-22.26-8.9-22.26-22.26s8.9-22.26,22.26-22.26h44.52c13.36,0,22.26,8.9,22.26,22.26s-8.9,22.26-22.26,22.26Z"/>
    </g>
  </g>
</svg>